# xmcd CD database file
#
# Track frame offsets:
#	150
#	17475
#	32200
#	48036
#	59585
#	76769
#	89655
#	105055
#	120363
#	129261
#	141461
#	153057
#
# Disc length: 2190 seconds
#
# Revision: 0
# Processed by: cddbd v1.5.2PL0 Copyright (c) Steve Scherf et al.
# Submitted via: CDex 1.51
#
DISCID=87088c0c
DTITLE=Raulzinho do Acordeon - Desabafo
DYEAR=2008
DGENRE=Jazz
TTITLE0=DESABAFO
TTITLE1=GAÚCHO GIRUAENSE
TTITLE2=SALÃO DO VALDEMAR
TTITLE3=XOTE DA PAIXÃO
TTITLE4=FANDANGO DO INFERNO
TTITLE5=BERÇO MATERNO
TTITLE6=XOTE SERENATA
TTITLE7=NA CASA DA MÃE JOANA
TTITLE8=FESTA POLONESA
TTITLE9=PEQUENO MUNDO
TTITLE10=RAINHA DO CIÚME
TTITLE11=O BAILE TERMINOU
EXTD=YEAR: 2008
EXTT0=
EXTT1=
EXTT2=
EXTT3=
EXTT4=
EXTT5=
EXTT6=
EXTT7=
EXTT8=
EXTT9=
EXTT10=
EXTT11=
PLAYORDER=
